<?xml version="1.0" encoding="UTF-8"?>
<svg version="1.1" xmlns="http://www.w3.org/2000/svg" width="1000" height="1000">
<path d="M0 0 C69.3 0 138.6 0 210 0 C209.36851545 5.0518764 208.87259964 9.00746402 207.47558594 13.71655273 C207.00560936 15.31830101 207.00560936 15.31830101 206.52613831 16.95240784 C206.18235641 18.10119919 205.83857452 19.24999054 205.484375 20.43359375 C204.92602455 22.3290305 204.36767846 24.22446853 203.80948734 26.1199522 C203.20960261 28.15289346 202.60674452 30.1849314 202.00302124 32.21673584 C200.06920437 38.72597223 198.15384455 45.24064979 196.23735619 51.75500488 C195.78767119 53.28321108 195.33774933 54.81134759 194.88759804 56.3394165 C191.30445131 68.50343179 187.77385753 80.68190569 184.27734375 92.87109375 C183.92500483 94.09898904 183.92500483 94.09898904 183.56554794 95.35169029 C181.48853855 102.59121242 179.41399753 109.83143875 177.34484863 117.07321167 C169.16786868 145.68905794 169.16786868 145.68905794 166.0625 155.28515625 C161.34377977 169.88246904 157.28232084 184.69103667 153.06349182 199.43862152 C151.7867937 203.89925697 150.50707924 208.35902679 149.22753906 212.81884766 C147.66040942 218.28164165 146.09348661 223.74449442 144.52780151 229.20770264 C140.16516174 244.43039889 135.78826297 259.64895862 131.40487671 274.86569214 C130.24461254 278.89352316 129.08477833 282.9214779 127.92504883 286.94946289 C127.53855906 288.2918142 127.15206919 289.63416547 126.76557922 290.97651672 C126.57460474 291.63980799 126.38363026 292.30309925 126.18686867 292.98649025 C125.41969323 295.65097258 124.65245278 298.31543618 123.88521099 300.97989941 C121.34497602 309.80159641 118.80521066 318.62342856 116.265625 327.4453125 C116.06922173 328.12756771 115.87281845 328.80982292 115.67046356 329.51275253 C114.67747982 332.96213378 113.68450261 336.41151691 112.69152832 339.86090088 C110.90888858 346.05340496 109.12619116 352.24589243 107.34349823 358.4383812 C106.35399647 361.87558679 105.36449842 365.31279345 104.375 368.75 C103.97916668 370.12500001 103.58333335 371.50000001 103.1875 372.875 C102.89359375 373.8959375 102.89359375 373.8959375 102.59375 374.9375 C102 377 101.40625 379.0625 100.8125 381.125 C100.51858809 382.14595733 100.51858809 382.14595733 100.21873856 383.18754005 C99.82294358 384.5624066 99.4271484 385.93727309 99.031353 387.31213951 C98.041181 390.75168084 97.05101272 394.19122323 96.06085205 397.63076782 C94.28663531 403.79389311 92.51239405 409.95701134 90.73801041 416.12008858 C89.75761324 419.52536617 88.77723834 422.93065017 87.796875 426.3359375 C87.60239525 427.01146038 87.4079155 427.68698326 87.20754242 428.38297653 C84.51421209 437.73838478 81.82191548 447.09409 79.13037109 456.45001221 C77.62593741 461.67946948 76.12121852 466.90884467 74.61643982 472.13820267 C73.5974898 475.67930638 72.5786942 479.22045435 71.56030273 482.76171875 C69.04467136 491.50910364 66.52505063 500.25532872 64 509 C63.65670654 510.1897644 63.31341309 511.37952881 62.9597168 512.60534668 C61.98060325 515.99536688 60.99864585 519.38454853 60.015625 522.7734375 C59.72371277 523.78483795 59.43180054 524.7962384 59.13104248 525.83828735 C58.86382385 526.75709686 58.59660522 527.67590637 58.32128906 528.62255859 C58.08895569 529.42422455 57.85662231 530.2258905 57.61724854 531.05184937 C57 533 57 533 56 535 C89.99 535 123.98 535 159 535 C158.21225198 539.72648814 157.35712087 543.0354049 155.60864258 547.37573242 C155.36340127 547.9893482 155.11815996 548.60296398 154.8654871 549.23517418 C154.04753599 551.27761285 153.22103562 553.31647792 152.39453125 555.35546875 C151.80562234 556.82114843 151.21726764 558.28705089 150.62942505 559.75315857 C149.36336087 562.90751358 148.09354058 566.06032008 146.82077026 569.2119751 C144.78336963 574.25720638 142.75444285 579.30581848 140.72680664 584.35498047 C138.25231396 590.51532009 135.77590733 596.67488311 133.29685497 602.83338928 C126.79490874 618.98585555 120.32517438 635.15116958 113.86000061 651.31838226 C112.93644534 653.62763707 112.01263707 655.93679052 111.08874512 658.24591064 C101.70092265 681.7097387 92.34396107 705.18575021 83.01234818 728.67198944 C82.07640677 731.02750042 81.14025562 733.38292795 80.20407104 735.73834229 C71.0235519 758.83833628 71.0235519 758.83833628 62 782 C64.97368324 778.30773835 67.81624555 774.55100575 70.5625 770.6875 C71.2126709 769.77508545 71.2126709 769.77508545 71.87597656 768.84423828 C75.51247737 763.72315882 79.07451725 758.55270621 82.62255859 753.37011719 C86.27774061 748.0358004 89.97472848 742.73186848 93.6875 737.4375 C100.80678447 727.28403963 107.89006519 717.10581182 114.96777344 706.92333984 C117.6461602 703.0705043 120.3258208 699.21855576 123.00561523 695.36669922 C124.33334723 693.45823685 125.66098422 691.54970839 126.98852539 689.64111328 C130.38290841 684.76108965 133.77840423 679.88184608 137.17578125 675.00390625 C143.01304247 666.62098483 148.84963106 658.23822419 154.625 649.8125 C159.19454373 643.14708623 163.82252354 636.52367859 168.46191406 629.90673828 C174.98142682 620.60648251 181.46348433 611.28030306 187.94580078 601.95410156 C190.02373427 598.96586823 192.10340516 595.97885136 194.18359375 592.9921875 C200.01846154 584.61331736 205.85228414 576.2343536 211.625 567.8125 C216.19454373 561.14708623 220.82252354 554.52367859 225.46191406 547.90673828 C231.9886575 538.59616776 238.47812613 529.25978739 244.96777344 519.92333984 C247.6461602 516.0705043 250.3258208 512.21855576 253.00561523 508.36669922 C254.33334723 506.45823685 255.66098422 504.54970839 256.98852539 502.64111328 C260.38290841 497.76108965 263.77840423 492.88184608 267.17578125 488.00390625 C273.44407257 479.00198025 279.70378326 469.99514643 285.90380859 460.94604492 C290.30050424 454.53992844 294.7629599 448.18001206 299.23095703 441.82348633 C299.79282715 441.02322021 300.35469727 440.2229541 300.93359375 439.3984375 C301.42915771 438.69380371 301.92472168 437.98916992 302.43530273 437.26318359 C304.32377149 434.53169579 306.15798272 431.76302592 308 429 C273.35 428.67 238.7 428.34 203 428 C203.70134676 424.49326618 204.33239219 421.85455261 205.61811829 418.62835693 C205.95239838 417.78356781 206.28667847 416.93877869 206.63108826 416.06838989 C206.99815384 415.15346771 207.36521942 414.23854553 207.7434082 413.29589844 C208.13083191 412.32049103 208.51825562 411.34508362 208.91741943 410.34011841 C210.20769589 407.09485692 211.50414782 403.85210129 212.80078125 400.609375 C213.71582391 398.31264537 214.63054665 396.01578825 215.54496765 393.71881104 C217.72422147 388.24759754 219.90757312 382.77803247 222.09263343 377.30913568 C224.26314067 371.87571397 226.42788298 366.4400062 228.59200001 361.0040369 C238.93203872 335.03499967 249.36995498 309.10872422 259.95913696 283.24028015 C267.16526928 265.63175823 274.25208621 247.97711199 281.29473877 230.30267334 C283.73514806 224.17904292 286.17858493 218.05662073 288.62279701 211.93450737 C289.45959848 209.83745778 290.29521175 207.73993784 291.13066101 205.64234924 C291.63158557 204.38663288 292.13254478 203.13093035 292.63354492 201.87524414 C293.06841721 200.78393692 293.50328949 199.6926297 293.95133972 198.56825256 C295 196 295 196 296 194 C355.5691609 197.29308169 412.89600282 223.85224208 453 268 C485.94488422 306.42545147 500.507324 355.48200625 500.3125 405.5 C500.30976578 406.95666077 500.30976578 406.95666077 500.30697632 408.44274902 C500.26051795 423.15264942 499.71315639 437.5077744 497 452 C496.82839355 452.95567871 496.65678711 453.91135742 496.47998047 454.89599609 C490.22714489 489.1217494 478.80095906 521.04468235 463 552 C462.58814453 552.80840332 462.17628906 553.61680664 461.75195312 554.44970703 C447.96859974 581.13918706 429.5844491 606.2687348 409.3359375 628.41796875 C408.09124103 629.79379545 406.85169069 631.17504259 405.65234375 632.59057617 C400.13348353 639.07024794 394.12819769 645.05789648 388.11328125 651.07202148 C386.26271033 652.92477468 384.42029924 654.78538706 382.578125 656.64648438 C376.40484658 662.84832985 370.1902897 668.74073784 363.30810547 674.15942383 C361.0740838 675.9409226 358.96990702 677.80808271 356.875 679.75 C285.36748692 743.87773415 185.09246946 784.34356484 49.6171875 791.703125 C8.50912761 789.43547644 -31.41238999 782.77569099 -68 763 C-69.01964844 762.45988281 -70.03929687 761.91976562 -71.08984375 761.36328125 C-109.25778131 740.20441117 -136.13376157 703.82550848 -148.7578125 662.4296875 C-160.08092155 622.79534733 -159.98212944 581.29032792 -153.75 540.8125 C-153.47990112 539.02030029 -153.47990112 539.02030029 -153.2043457 537.19189453 C-149.62959176 515.12728687 -143.66737045 493.5845284 -137.44282532 472.14645767 C-136.45786415 468.74841047 -135.48101741 465.34802866 -134.50292969 461.94799805 C-132.42785349 454.74027567 -130.34279544 447.53546916 -128.25500488 440.3314209 C-127.02362022 436.08239088 -125.79429761 431.83276628 -124.56542969 427.58300781 C-120.24002229 412.62636471 -115.90457823 397.6726524 -111.56282425 382.72074699 C-106.82941729 366.41951104 -102.10970564 350.11432056 -97.39147949 333.8086853 C-95.07389542 325.7994218 -92.75578218 317.79031146 -90.4375 309.78125 C-90.20941399 308.99326712 -89.98132797 308.20528423 -89.74633026 307.39342308 C-84.63078219 289.72092104 -79.50846082 272.05038428 -74.38537598 254.38006592 C-67.8171134 231.72497165 -61.25517514 209.06805355 -54.69747162 186.40990067 C-49.08979565 167.03428497 -43.48187644 147.65874112 -37.8671875 128.28515625 C-37.65911657 127.56718935 -37.45104565 126.84922245 -37.23666954 126.10949898 C-34.9706464 118.2905824 -32.70383425 110.4718953 -30.43579102 102.65356445 C-29.62250247 99.84978841 -28.80927635 97.04599427 -27.99609375 94.2421875 C-27.69443519 93.20212461 -27.69443519 93.20212461 -27.38668251 92.14105034 C-24.52481121 82.27268914 -21.67130915 72.40193581 -18.82312012 62.52961731 C-17.20094934 56.90698612 -15.5767318 51.28494677 -13.95206833 45.66303539 C-12.62796682 41.08045273 -11.30659526 36.49709473 -9.9872942 31.9131279 C-9.17330186 29.08738249 -8.35666347 26.26240681 -7.53930473 23.43763351 C-6.98359167 21.514112 -6.43107837 19.58966695 -5.87867737 17.66519165 C-5.54222702 16.50425995 -5.20577667 15.34332825 -4.85913086 14.1472168 C-4.57081894 13.14732224 -4.28250702 12.14742767 -3.98545837 11.11723328 C-2.79883143 7.36365717 -1.38225919 3.68602451 0 0 Z M60 784 C61 786 61 786 61 786 Z " fill="#F0672A" transform="translate(328,104)"/>
</svg>
